<?xml version="1.0" encoding="utf-8"?>
<!-- Generator: Adobe Adobe Illustrator 28.6.0, SVG Export Plug-In . SVG Version: 6.00 Build 0)  -->
<svg version="1.1" id="Layer_1" xmlns="http://www.w3.org/2000/svg" xmlns:xlink="http://www.w3.org/1999/xlink" x="0px" y="0px"
	 width="1474px" height="485px" viewBox="0 0 1474 485" style="enable-background:new 0 0 1474 485;" xml:space="preserve">
<g>
	<path d="M1374.49,294.41c0.98,7.17,2.1,14.78,3.05,22.41c3.29,26.65,0.68,52.73-8.26,78.05c-4.66,13.21-10.35,25.91-18.61,37.45
		c-19.94,27.86-45.99,46.69-80.21,51.12c-44.19,5.72-79.97-9.81-105.56-46.92c-2.96-4.3-4.97-9.25-8.08-15.16
		c-2.44,2.01-4.78,3.33-6.31,5.28c-14.45,18.37-32.18,32.96-52.74,43.72c-16.35,8.56-34,13.39-52.74,14
		c-19,0.62-36.97-2.21-54.16-10.98c-15.64-7.99-28.13-19.12-38.32-33.17c-1.78-2.46-3.68-4.84-6.07-7.97
		c-3.87,2.48-7.32,4.42-10.47,6.76c-23.64,17.56-48.88,32-77.51,39.82c-26.91,7.36-53.75,8.46-80.82,0.21
		c-21.3-6.5-36.64-20.31-49.5-37.64c-2.53-3.41-5.03-6.84-8.05-10.95c-4.09,3.29-7.25,6.18-10.74,8.6
		c-24.89,17.31-50.99,32.31-80.67,39.81c-21.44,5.41-43,8.39-65.44,6.03c-20.4-2.15-39.78-6.62-58.08-15.72
		c-4.44-2.21-8.79-4.71-12.88-7.52c-4.91-3.37-9.45-3.36-14.82-0.83c-16.36,7.71-33.34,14.02-51.09,17.37
		c-15.21,2.87-30.7,5.5-46.11,5.72c-22.2,0.33-43.43-5.34-60.49-20.46c-15.12-13.41-22.48-31.32-23.11-51.33
		c-0.4-12.66,0.7-25.47,2.37-38.05c2.7-20.31,6.36-40.5,9.77-60.71c1.5-8.87,0.37-17.53-2.77-25.67
		c-5.19-13.43-14.16-18.07-29.76-17.25c-13.72,0.73-25.77,6.56-35.51,16.65c-12.84,13.29-23.07,28.2-31.01,45
		c-15.87,33.58-23.64,69.23-28.7,105.67c-1.11,7.99-1.34,16.12-2.84,24.03c-2.35,12.48-10.58,18.84-22.97,18.74
		c-13.89-0.11-22.91-8.69-22.88-22.72c0.02-8.04,1.17-16.09,2.05-24.11c1.51-13.88,3.24-27.74,4.77-41.62
		c0.15-1.4-0.35-2.86-0.76-5.81c-3.13,2.1-5.41,3.41-7.45,5.02c-23.39,18.53-47.15,36.54-72.69,52.07
		c-7.43,4.52-14.82,9.12-22.41,13.38c-6.62,3.72-13.4,6.15-21.29,2.96c-16.41-6.63-20.16-27.62-6.28-38.65
		c7.52-5.98,15.71-11.19,23.94-16.19c29.55-17.99,57.2-38.54,83.12-61.41c9.54-8.42,18.59-17.4,27.92-26.05
		c3.6-3.33,5.24-7.26,5.89-12.2c5.28-40.33,10.5-80.68,16.4-120.92c4.01-27.35,8.29-54.7,13.94-81.74
		c3.54-16.95,8.66-33.81,15.19-49.85c7.73-18.98,19.72-35.37,39.07-44.59c35.64-16.98,78.1-1.94,91.19,38.66
		c5.93,18.38,6.39,37.24,3.85,56.26c-4.72,35.32-16.56,68.12-34.71,98.72c-3.01,5.08-5.83,10.27-8.58,15.49
		c-0.95,1.81-1.42,3.88-2.29,6.35c2.07,0.55,3.48,1.11,4.93,1.28c15.95,1.79,29.68,8.57,42.16,18.38
		c9.18,7.22,14.31,16.99,18.39,27.56c7.04,18.26,6.88,37.25,4.56,56.13c-2.57,20.94-6.75,41.69-9.54,62.61
		c-1.1,8.25-0.73,16.77-0.34,25.13c0.41,8.93,5.81,14.64,13.51,18.68c11.43,6,23.71,4.7,35.69,3.86
		c16.49-1.14,32.49-5.24,48.1-10.73c1.76-0.62,3.49-1.32,5.19-2.09c8.87-4.08,9.33-5.05,5.65-14.13
		c-13.41-33.09-14.63-66.98-7.3-101.6c3.18-15.04,8.24-29.26,15.45-42.81c14.97-28.11,37.25-46.38,69.35-50.61
		c25.11-3.31,47.57,3.45,65.56,21.66c11.9,12.04,18.42,27.08,20.68,43.96c3.61,26.9-2.62,51.6-15.52,75.17
		c-12.8,23.38-31.49,41.38-51.26,58.55c-5.32,4.62-10.62,9.26-17.39,15.16c4.43,1.98,7.24,3.57,10.25,4.52
		c14.71,4.59,29.87,6.34,45.15,5c21.16-1.86,41.7-6.28,60.9-16.14c17.84-9.16,33.67-21.03,48.96-33.79
		c5.18-4.33,7.52-9.46,6.43-16.4c-5.02-32.12-4.08-64.34-1.79-96.64c2.22-31.32,6.16-62.39,11.32-93.35
		c6.05-36.3,15.17-71.76,28.85-105.91c8.59-21.43,19.37-41.78,36.4-58c19.21-18.3,41.86-22.69,66.47-14.07
		c20.58,7.21,31.63,23.59,36.03,44.2c3.23,15.14,4.18,30.39,2.87,46.2c-2.46,29.59-7.76,58.49-15.26,87.08
		c-6.56,25-15.67,49.06-26.37,72.64c-16.38,36.09-37.06,69.65-58.47,102.81c-7.07,10.94-15.14,21.28-23.26,31.48
		c-3.44,4.32-3.56,7.83-1.5,12.7c12.7,29.96,38.99,40.38,68.18,36.56c32.92-4.31,60.07-19.82,85.67-40.17
		c12.49-9.92,17.13-19.22,13.86-35.27c-4.85-23.8-3-48.35-2.13-72.53c0.71-19.81,2.96-39.64,5.89-59.26
		c4.09-27.32,8.81-54.58,14.42-81.63c7.48-36.05,18.8-71.02,37.52-102.9c9.06-15.43,20.14-29.78,36.65-38.87
		c24.74-13.62,64.11-9.26,79.03,23.18c5.67,12.33,8.89,24.88,9.24,38.59c1.39,54.66-10.42,106.82-29.28,157.6
		c-14.65,39.46-34.11,76.63-56.74,112.06c-11.02,17.25-23.3,33.71-35.31,50.32c-2.66,3.68-3.65,6.72-1.79,11.04
		c9.51,22,25.11,36.71,49.69,38.08c19.88,1.1,38.87-3.53,55.28-15.93c25.6-19.35,42.01-45.13,53.83-74.55
		c8.33-20.73,14.63-42.23,25.17-62.17c11.96-22.62,28.07-41.25,49.92-54.11c24.84-14.62,51.59-20.38,80.64-14.15
		c15.29,3.28,28.44,10.71,41.98,17.53c9.29,4.68,18.75,8.23,29.1,9.31c24.28,2.53,44.78-4.52,60.33-23.93
		c5.34-6.67,10.75-12.72,20.45-12.79c18.32-0.14,29.9,18.01,20.56,33.72c-4.54,7.63-10.42,14.88-17.05,20.78
		c-20.41,18.14-44.63,27.8-71.94,29.58c-1.53,0.1-3.07,0.38-4.57,0.72C1376.22,292.94,1375.76,293.5,1374.49,294.41z
		 M1255.76,437.46c10.66,1.35,21.44-1.04,31.2-7.32c17.52-11.27,30.27-26.54,37.74-46.06c4.81-12.57,7.01-25.56,7.86-39.08
		c1.05-16.71-0.41-32.8-6.2-48.45c-3.75-10.12-9.69-19.02-18.72-24.97c-20.7-13.65-42.21-12.84-63.53-1.51
		c-10.88,5.78-19.66,14.69-26.49,24.55c-19.17,27.68-26.03,58.72-21.17,92.07c1.77,12.14,6.24,23.54,14.33,32.95
		C1222.32,433.03,1237.27,438.72,1255.76,437.46z M970.22,328.07c0.74,0.21,1.49,0.42,2.23,0.63c4.65-6.89,9.56-13.63,13.92-20.71
		c13.35-21.7,25.56-44.01,36.48-67.07c12.45-26.27,21.66-53.62,27.57-81.96c4.43-21.24,7.75-42.75,10.56-64.26
		c1.6-12.28,1.46-24.84-1.74-37.05c-3.28-12.52-12.51-15.36-22.28-6.75c-7.99,7.04-14.5,15.16-19.39,24.79
		c-13.64,26.82-22.14,55.36-28.64,84.53c-6.14,27.59-11.27,55.37-13.58,83.61c-1.44,17.61-3.75,35.16-4.99,52.78
		C969.62,307.04,970.22,317.58,970.22,328.07z M744.63,325.23c1,0.38,1.99,0.76,2.99,1.14c1.89-2.26,4.11-4.33,5.63-6.83
		c6.78-11.15,13.71-22.22,19.92-33.69c9.61-17.75,19.55-35.41,27.77-53.81c11.8-26.43,20.66-54,26.49-82.42
		c5.44-26.52,9.88-53.18,8.28-80.44c-0.22-3.7-0.36-7.5-1.3-11.05c-2.79-10.59-13.9-14.6-22.43-7.68
		c-5.23,4.25-10.05,9.41-13.82,14.99c-12.48,18.49-20,39.33-26.15,60.54c-7.7,26.56-14.13,53.48-17.55,81
		c-2.33,18.79-4.5,37.59-6.45,56.42c-1.41,13.57-2.53,27.18-3.39,40.79C744.18,311.19,744.6,318.22,744.63,325.23z M204.76,244.16
		c0.98,0.38,1.96,0.76,2.93,1.14c2.22-2.44,4.6-4.75,6.62-7.35c12.97-16.67,24.38-34.35,35.31-52.45
		c16.08-26.66,28.2-54.66,32.63-85.52c1.49-10.36,1.51-21.12,0.56-31.55c-0.5-5.49-3.92-11.1-7.25-15.79
		c-1.83-2.58-6.08-4.28-9.47-4.74c-10.95-1.49-18.38,4.66-23.68,13.28c-3.38,5.51-5.87,11.64-8.2,17.71
		c-7.17,18.65-10.73,38.26-14.04,57.83c-4.71,27.84-8.7,55.8-12.83,83.74C206.17,228.31,205.6,236.26,204.76,244.16z M496.65,395.77
		c3.89-2.8,7.26-4.92,10.29-7.44c12.16-10.1,24.11-20.35,34.65-32.3c8.94-10.14,17.1-20.72,21.9-33.24
		c5.64-14.71,8.18-29.99,2.02-45.45c-4.23-10.62-13.04-16.58-24.32-17.04c-10.3-0.42-18.59,3.56-26.24,10.06
		c-13.42,11.41-19.92,26.56-24.67,42.96c-5.41,18.67-3.83,37.65-2.73,56.49C488.08,378.54,490.93,387.31,496.65,395.77z"/>
</g>
</svg>
